<svg xmlns="http://www.w3.org/2000/svg" xmlns:xlink="http://www.w3.org/1999/xlink" viewBox="0 0 15 15">
    <path fill="#FFFFFF" d="M2.5,0.5h10c1.1,0,2,0.9,2,2v10c0,1.1-0.9,2-2,2h-10c-1.1,0-2-0.9-2-2v-10C0.5,1.4,1.4,0.5,2.5,0.5z"/>
    <path d="M12.5,15h-10C1.1,15,0,13.9,0,12.5v-10C0,1.1,1.1,0,2.5,0h10C13.9,0,15,1.1,15,2.5v10C15,13.9,13.9,15,12.5,15z
	 M2.5,1C1.7,1,1,1.7,1,2.5v10C1,13.3,1.7,14,2.5,14h10c0.8,0,1.5-0.7,1.5-1.5v-10C14,1.7,13.3,1,12.5,1H2.5z"/>
    <path fill="currentColor" d="M6.3,8.6l4-4.2c0.4-0.4,1-0.4,1.4,0s0.4,1,0,1.5l-4.5,4.8c-0.1,0.1-0.2,0.2-0.4,0.4
	c-0.4,0.3-1,0.2-1.3-0.2L3.3,8.4C2.9,8,2.9,7.3,3.3,6.9s1-0.4,1.4,0L6.3,8.6z"/>
</svg>
